<?xml version="1.0" encoding="utf-8"?>
<svg xmlns="http://www.w3.org/2000/svg" viewBox="0 0 64 64" width="512" height="512">
  <path d="M33 2C26.753 2 21.814453 3.0407656 18.689453 5.0097656C15.294453 5.1987656 8 8.405 8 16C8 18.249746 8.6180098 19.96687 10 23.201172L10 28.175781C9.7013793 28.073998 9.3784593 28 9 28C8.296 28 6 28.36 6 33C6 36.802 8.6125469 41.084094 11.185547 41.871094C14.145547 53.391094 23 62 32 62C41 62 49.854453 53.391094 52.814453 41.871094C55.387453 41.084094 58 36.802 58 33C58 28.36 55.704 28 55 28C54.604751 28 54.269255 28.079073 53.960938 28.189453C53.885292 26.095831 53.634035 23.968198 53.214844 21.917969C55.06845 21.412418 56.251265 20.997093 56.322266 20.970703C56.817266 20.786703 57.082687 20.248188 56.929688 19.742188C53.715688 9.1291875 44.099 2 33 2 z M 33 4C42.728 4 51.520844 10.285344 54.714844 19.402344C53.607844 19.756344 51.548906 20.359578 48.878906 20.892578C48.336906 21.000578 47.98575 21.526359 48.09375 22.068359C48.20175 22.609359 48.725531 22.963516 49.269531 22.853516C50.007849 22.706409 50.632193 22.554726 51.271484 22.404297C51.740626 24.726734 52 27.15906 52 29.5C52 30.702 51.957094 31.917234 51.871094 33.115234C51.831094 33.666234 52.245875 34.145547 52.796875 34.185547C52.820875 34.186547 52.845141 34.1875 52.869141 34.1875C53.389141 34.1875 53.827234 33.784812 53.865234 33.257812C53.912645 32.595122 53.946463 31.926714 53.96875 31.257812L54 31.257812C54.006 30.879812 54.117 30 55 30C55.481 30 56 30.939 56 33C56 36.486 53.257 40 52 40C51.536 40 51.133344 40.319484 51.027344 40.771484C48.443344 51.733484 40.264 60 32 60C23.736 60 15.556656 51.733484 12.972656 40.771484C12.866656 40.319484 12.464 40 12 40C10.743 40 8 36.486 8 33C8 30.939 8.519 30 9 30C9.883 30 9.994 30.88 10 31.25L10 33C10 33.552 10.448 34 11 34C11.552 34 12 33.552 12 33L12 23C12 23 12 22.998047 12 22.998047C11.999901 22.868845 11.973253 22.735834 11.919922 22.609375C11.919402 22.60815 11.920447 22.606693 11.919922 22.605469C10.555922 19.423469 10 17.936 10 16C10 9.677 16.438 7 19 7C19.197 7 19.390687 6.9410312 19.554688 6.8320312C22.293687 5.0060312 27.069 4 33 4 z M 37.210938 6.5214844C36.827266 6.5895938 36.503156 6.8797031 36.410156 7.2832031L35.966797 9.234375C35.843797 9.773375 36.17975 10.308641 36.71875 10.431641C36.79475 10.448641 36.867406 10.457031 36.941406 10.457031C37.397406 10.457031 37.811016 10.142688 37.916016 9.6796875L38.361328 7.7304688C38.484328 7.1914687 38.148375 6.65425 37.609375 6.53125C37.474625 6.5005 37.338828 6.4987812 37.210938 6.5214844 z M 42.634766 8.4648438C42.246781 8.4258438 41.85425 8.6167188 41.65625 8.9804688L40.697266 10.736328C40.432266 11.220328 40.610703 11.82875 41.095703 12.09375C41.248703 12.17775 41.412219 12.216797 41.574219 12.216797C41.928219 12.216797 42.272125 12.028313 42.453125 11.695312L43.412109 9.9394531C43.677109 9.4554531 43.498672 8.8470313 43.013672 8.5820312C42.892422 8.5157812 42.764094 8.4778437 42.634766 8.4648438 z M 46.949219 11.730469C46.693219 11.733844 46.438594 11.835203 46.246094 12.033203L44.851562 13.466797C44.466563 13.862797 44.473141 14.495859 44.869141 14.880859C45.064141 15.069859 45.317359 15.164062 45.568359 15.164062C45.829359 15.164062 46.089156 15.061328 46.285156 14.861328L47.679688 13.429688C48.064688 13.033688 48.056156 12.398672 47.660156 12.013672C47.461656 11.821172 47.205219 11.727094 46.949219 11.730469 z M 20.882812 16.007812C20.636688 16.036687 20.399969 16.155375 20.230469 16.359375C20.214469 16.378375 18.573688 18.329687 16.304688 19.929688C15.853688 20.248687 15.746453 20.873219 16.064453 21.324219C16.383453 21.775219 17.006031 21.882453 17.457031 21.564453C19.103031 20.403453 20.422391 19.103125 21.150391 18.328125C23.274391 19.757125 29.582266 23.57775 36.822266 23.96875C36.840266 23.96975 36.858953 23.96875 36.876953 23.96875C37.404953 23.96875 37.845047 23.556438 37.873047 23.023438C37.903047 22.472437 37.481687 22.000703 36.929688 21.970703C28.814688 21.532703 21.668656 16.252219 21.597656 16.199219C21.384656 16.039719 21.128937 15.978937 20.882812 16.007812 z M 50.222656 16.082031C50.093875 16.098109 49.966906 16.141687 49.847656 16.210938L48.115234 17.208984C47.636234 17.484984 47.472047 18.095219 47.748047 18.574219C47.933047 18.895219 48.269234 19.074219 48.615234 19.074219C48.784234 19.074219 48.955281 19.031406 49.113281 18.941406L50.845703 17.943359C51.324703 17.667359 51.488891 17.055172 51.212891 16.576172C51.005141 16.216172 50.609 16.033797 50.222656 16.082031 z M 45.179688 21.507812C43.797688 21.693813 42.413453 21.828203 41.064453 21.908203C40.513453 21.940203 40.092 22.413844 40.125 22.964844C40.156 23.495844 40.596094 23.90625 41.121094 23.90625C41.141094 23.90625 41.162594 23.905297 41.183594 23.904297C42.581594 23.821297 44.015313 23.682234 45.445312 23.490234C45.992313 23.417234 46.377688 22.912234 46.304688 22.365234C46.231687 21.818234 45.725687 21.435813 45.179688 21.507812 z M 22 30 A 2 2 0 0 0 20 32 A 2 2 0 0 0 22 34 A 2 2 0 0 0 24 32 A 2 2 0 0 0 22 30 z M 42 30 A 2 2 0 0 0 40 32 A 2 2 0 0 0 42 34 A 2 2 0 0 0 44 32 A 2 2 0 0 0 42 30 z M 37.947266 47.675781C34.425266 48.099781 29.578594 48.100734 26.058594 47.677734C25.503594 47.605734 25.013266 48.002781 24.947266 48.550781C24.881266 49.098781 25.272312 49.596109 25.820312 49.662109C27.657312 49.883109 29.794 50 32 50C34.208 50 36.3485 49.882156 38.1875 49.660156C38.7355 49.594156 39.126547 49.096828 39.060547 48.548828C38.995547 48.000828 38.493266 47.610781 37.947266 47.675781 z" />
</svg>