<?xml version="1.0" encoding="utf-8"?>
<svg xmlns="http://www.w3.org/2000/svg" viewBox="0 0 24 24" width="384" height="384">
  <path d="M7.5,20L7.5,20C6.671,20,6,19.328,6,18.5v-14C6,3.672,6.671,3,7.5,3h0C8.328,3,9,3.672,9,4.5v14C9,19.328,8.328,20,7.5,20z" fill="#FFFFFF" />
  <path d="M15.501,20c-0.423,0-0.843-0.178-1.14-0.523l-6-7c-0.449-0.524-0.483-1.287-0.082-1.849l5-7 c0.481-0.673,1.419-0.829,2.093-0.349c0.674,0.481,0.83,1.418,0.349,2.093l-4.317,6.044l5.235,6.107 c0.539,0.629,0.467,1.576-0.162,2.115C16.193,19.881,15.846,20,15.501,20z" opacity=".35" fill="#FFFFFF" />
</svg>